<svg width="200" height="101" viewBox="0 0 200 101" fill="none" xmlns="http://www.w3.org/2000/svg">
<path d="M19.4374 72.6737C16.4185 72.6737 13.6782 71.9074 11.2166 70.3747C8.75498 68.842 6.78104 66.6823 5.29479 63.8955C3.85498 61.0623 3.13507 57.7415 3.13507 53.933C3.13507 50.3102 3.85498 47.059 5.29479 44.1794C6.78104 41.2998 8.80142 39.024 11.3559 37.3519C13.9569 35.6334 16.9294 34.7742 20.2735 34.7742C22.3635 34.7742 24.2446 35.1458 25.9166 35.8889C27.6351 36.5856 29.1213 37.468 30.3754 38.5363V35.6102H36.0882V63.0595C36.0882 64.8244 36.5062 65.9856 37.3422 66.5429C38.2247 67.0538 39.1768 67.3093 40.1986 67.3093L38.8749 72.186C34.4161 72.186 31.7223 70.3747 30.7934 66.7519C29.7251 68.2382 28.2621 69.6083 26.4043 70.8624C24.5929 72.0699 22.2706 72.6737 19.4374 72.6737ZM20.8308 67.1003C22.5957 67.1003 24.2678 66.6823 25.8469 65.8462C27.4261 64.9638 28.7498 63.8723 29.818 62.5718V43.1344C28.564 42.2519 27.1706 41.5552 25.6379 41.0443C24.1517 40.487 22.5725 40.2083 20.9005 40.2083C18.6711 40.2083 16.6972 40.7889 14.9787 41.95C13.3066 43.0647 11.9829 44.6439 11.0076 46.6875C10.0322 48.6846 9.54455 51.0301 9.54455 53.724C9.54455 56.3249 10.0322 58.6472 11.0076 60.6908C11.9829 62.6879 13.3299 64.2671 15.0483 65.4282C16.7668 66.5429 18.6943 67.1003 20.8308 67.1003ZM48.5718 71.8377V35.6102H54.842V71.8377H48.5718ZM51.7069 29.4097C50.4993 29.4097 49.4543 28.9685 48.5718 28.086C47.7358 27.2036 47.3178 26.1818 47.3178 25.0206C47.3178 23.6737 47.7126 22.6055 48.5022 21.8159C49.2917 21.0263 50.36 20.6315 51.7069 20.6315C52.9145 20.6315 53.9363 21.0728 54.7723 21.9552C55.6548 22.7912 56.096 23.813 56.096 25.0206C56.096 26.3211 55.7012 27.3894 54.9117 28.2254C54.1221 29.0149 53.0538 29.4097 51.7069 29.4097ZM66.6856 71.8377V42.368H61.1121V36.9339H66.6856V32.6841C66.6856 28.5969 67.8235 25.369 70.0993 23.0003C72.3752 20.6315 75.3477 19.4472 79.0169 19.4472C80.9211 19.4472 82.5932 19.6794 84.033 20.1439C85.4728 20.5619 86.8429 21.096 88.1434 21.7462L86.2624 27.041C85.287 26.5301 84.242 26.0657 83.1273 25.6476C82.0126 25.2296 80.7818 25.0206 79.4349 25.0206C77.4842 25.0206 75.905 25.6476 74.6974 26.9017C73.5363 28.1093 72.9557 29.8974 72.9557 32.2661V36.9339H83.6847V42.368H72.9557V71.8377H66.6856ZM90.2095 71.8377V35.6102H96.4797V71.8377H90.2095ZM93.3446 29.4097C92.137 29.4097 91.092 28.9685 90.2095 28.086C89.3735 27.2036 88.9555 26.1818 88.9555 25.0206C88.9555 23.6737 89.3503 22.6055 90.1398 21.8159C90.9294 21.0263 91.9977 20.6315 93.3446 20.6315C94.5522 20.6315 95.574 21.0728 96.41 21.9552C97.2925 22.7912 97.7337 23.813 97.7337 25.0206C97.7337 26.3211 97.3389 27.3894 96.5493 28.2254C95.7598 29.0149 94.6915 29.4097 93.3446 29.4097ZM120.306 72.6737C116.823 72.6737 114.059 71.5358 112.016 69.26C110.019 66.9377 109.02 63.6401 109.02 59.3671V42.368H102.75V36.9339H109.159L110.483 25.5083H115.29V36.9339H125.322V42.368H115.29V59.8548C115.29 62.5486 115.847 64.4296 116.962 65.4979C118.123 66.5661 119.493 67.1003 121.073 67.1003C122.234 67.1003 123.325 66.9145 124.347 66.5429C125.415 66.1714 126.391 65.7301 127.273 65.2192L129.015 70.2353C128.086 70.7927 126.832 71.3268 125.253 71.8377C123.674 72.3951 122.025 72.6737 120.306 72.6737Z" fill="url(#paint0_linear_9_6)"/>
<path fill-rule="evenodd" clip-rule="evenodd" d="M197.048 89.7909C194.796 90.4288 191.526 90.5605 187.245 90.9532C182.963 91.3455 183.753 89.4657 183.756 88.9609C183.759 88.4557 183.735 88.9099 183.756 86.8024C183.76 86.3782 183.917 86.0013 183.967 85.7106C184.047 85.2441 184.103 84.8289 184.254 84.6443C184.525 84.3128 184.909 84.4568 184.919 84.4782C184.919 84.4782 185.048 80.9399 184.753 77.6713C184.417 73.9609 183.648 70.3431 183.59 68.0421C183.479 63.7143 184.088 61.7333 184.088 61.7333C184.088 61.7333 183.147 61.2206 181.264 60.7371C179.239 60.2177 176.19 59.7046 173.953 59.0768C171.301 58.3323 169.301 57.5825 169.301 57.5825C169.301 57.5825 163.969 67.6637 159.498 73.1886C158.09 74.9289 157.379 75.0759 156.341 75.5129C155.236 75.9783 153.849 76.6752 153.849 76.6752C153.849 76.6752 147.171 80.6144 142.717 84.1463C139.94 86.3479 138.563 88.4628 138.563 88.4628C138.563 88.4628 138.739 89.4184 138.397 89.7909C138.03 90.1899 137.142 90.3482 137.068 90.6209C136.925 91.1486 135.775 92.869 135.074 94.7716C134.372 96.6743 134.734 99.3222 133.745 100.084C133.313 100.417 131.535 99.0626 130.754 96.4316C129.746 93.0329 129.757 87.8856 129.757 85.4743C129.757 81.1972 131.424 83.6171 131.917 83.3159C132.133 83.1842 133.551 83.14 134.409 83.3159C135.512 83.5421 136.102 83.9948 136.403 83.6482C136.938 83.0312 142.836 76.8867 144.378 74.849C145.921 72.8113 148.785 71.6363 150.027 71.3625C151.27 71.0887 152.465 69.4159 153.35 68.5402C153.707 68.1873 154.09 64.8177 155.012 61.8991C156.378 57.5769 158.335 53.266 158.335 53.266C158.335 53.266 157.862 52.6704 157.67 51.7718C157.46 50.7914 157.528 49.4926 157.504 49.2814C157.436 48.6858 157.446 48.4409 157.338 47.7872C157.241 47.2017 157.172 46.7914 157.172 46.7914C157.172 46.7914 157.434 48.8355 156.673 48.7833C155.912 48.7316 156.009 47.6214 156.009 47.6214C156.009 47.6214 155.914 48.418 155.344 48.2853C154.583 48.1086 154.68 47.4553 154.68 47.4553C154.68 47.4553 154.072 47.3548 153.849 47.1233C153.626 46.8916 153.464 46.2731 153.35 45.6291C153.237 44.9851 153.274 44.0899 153.35 43.1387C153.427 42.1876 153.445 41.6411 153.35 40.4822C153.256 39.3237 151.849 36.8959 151.191 34.0076C150.778 32.1961 150.635 30.7465 150.526 29.6911C150.461 29.0636 150.348 28.6233 150.36 28.1969C150.39 27.0526 151.099 26.3655 152.52 24.7104C153.94 23.0552 159.657 17.1545 161.326 15.9112C162.994 14.6678 165.907 14.9904 166.809 14.4169C167.202 14.166 167.738 13.2329 167.806 12.4246C167.892 11.3842 167.42 10.4275 167.141 10.1004C166.919 9.83975 165.634 9.0075 165.313 7.94196C164.919 6.63152 165.491 5.07653 165.313 5.11967C165.207 5.14554 164.429 5.57311 164.316 6.28196C164.085 7.73118 164.369 10.2414 162.987 12.0927C161.249 14.4214 157.172 12.7566 157.172 12.7566C157.172 12.7566 159.058 11.5283 160.329 9.60234C161.251 8.2045 161.556 6.10794 161.99 5.45197C163.021 3.89136 164.397 3.95474 164.981 3.62544C165.564 3.29614 163.791 2.61579 167.639 0.803143C169.454 -0.0516102 171.496 -0.133372 172.956 0.138918C174.592 0.444589 175.562 1.1797 175.947 1.46737C176.674 2.01157 175.781 3.29352 175.781 3.29352C175.781 3.29352 176.554 4.49857 176.778 5.45197C176.955 6.21033 176.591 6.72678 176.611 6.94581C176.658 7.44089 177.581 8.06986 177.775 8.77234C177.883 9.1654 177.481 9.31017 177.276 9.43619C177.114 9.53558 177.156 9.63272 177.11 9.76849C177.004 10.0757 177.198 10.2294 177.276 10.2666C177.432 10.3408 177.11 10.7646 177.11 10.7646C177.11 10.7646 177.301 10.9653 177.276 11.2627C177.255 11.5042 177.045 11.4292 176.944 11.7604C176.882 11.9629 176.898 12.2937 176.933 12.5728C177.03 13.348 176.426 13.2445 175.781 13.4208C175.133 13.5974 173.94 13.6031 173.787 13.7527C173.634 13.9024 173.27 14.6547 172.956 15.4131C172.642 16.1714 172.458 18.0696 172.458 18.0696C172.458 18.0696 173.748 18.6877 175.448 20.2277C177.148 21.7677 176.599 23.6962 176.611 24.3784C176.624 25.0607 177.317 26.9412 177.276 28.0307C177.226 29.3644 176.113 31.0192 176.113 31.0192C176.113 31.0192 178.614 28.5393 178.938 27.8646C179.262 27.1902 178.799 26.3531 179.934 24.5442C180.66 23.3883 181.362 21.708 181.762 21.2238C182.162 20.7396 182.606 21.5993 182.427 22.0538C182.113 22.8505 182.089 22.7019 181.596 23.5481C181.103 24.3942 181.762 24.5442 181.762 24.5442C181.762 24.5442 182.344 24.4542 182.925 24.2123C183.589 23.9359 185.168 21.8862 185.75 21.5558C185.932 21.4522 186.105 21.6499 186.082 21.8881C186.048 22.241 185.75 22.7181 185.75 22.7181C185.75 22.7181 186.082 22.8366 186.082 23.2161C186.082 23.4783 185.75 24.0461 185.75 24.0461C185.75 24.0461 186.235 24.2438 185.916 25.0423C185.572 25.9015 184.421 27.3665 184.421 27.3665C184.421 27.3665 184.918 27.0586 185.584 26.7027C185.797 26.5886 185.932 26.7615 185.916 27.0346C185.906 27.1936 185.626 27.4558 185.584 27.5327C185.462 27.7554 184.174 28.6567 183.091 29.193C182.249 29.6101 181.563 29.6791 181.43 29.8569C181.125 30.2638 174.758 37.337 174.618 37.8261C174.477 38.3151 173.994 42.6797 173.953 43.803C173.912 44.9263 175.116 46.7914 175.116 46.7914C175.116 46.7914 188.38 54.2809 188.74 55.2583C189.101 56.2361 190.17 56.7102 190.9 57.7487C191.382 58.4335 191.109 59.3596 190.9 60.7371C190.792 61.4479 190.773 62.5944 190.734 63.2275C190.62 65.0874 190.492 71.8711 190.07 74.849C189.647 77.827 189.482 81.48 189.903 81.4898C190.105 81.4946 190.683 81.6521 190.9 81.9878C191.136 82.3524 191.182 83.0781 191.565 83.482C192.299 84.258 195.491 85.9383 196.217 86.1386C196.943 86.3385 199.352 85.4691 199.872 86.6367C200.393 87.8038 199.3 89.1529 197.048 89.7909ZM160.661 24.8765C160.661 24.8765 159.214 26.1588 157.837 27.0346C156.472 27.9021 155.178 28.3627 155.178 28.3627C155.178 28.3627 155.378 29.663 155.51 31.3511C155.62 32.7456 155.663 34.4989 155.677 35.1695C155.706 36.6529 156.337 38.1741 156.507 39.1541C156.677 40.1345 156.842 40.7185 156.84 41.4784C156.837 42.2382 158.391 43.5787 158.667 43.803C158.943 44.0273 159.332 44.7991 159.332 44.7991C159.332 44.7991 159.382 44.4252 159.83 43.6368C160.853 41.8395 162.84 38.5128 163.153 36.9961C163.603 34.8136 160.661 24.8765 160.661 24.8765Z" fill="url(#paint1_linear_9_6)"/>
<defs>
<linearGradient id="paint0_linear_9_6" x1="65" y1="7.83771" x2="65" y2="89.8377" gradientUnits="userSpaceOnUse">
<stop stop-color="#0B98FF"/>
<stop offset="1" stop-color="#6633D1" stop-opacity="0.22"/>
</linearGradient>
<linearGradient id="paint1_linear_9_6" x1="129.757" y1="100.134" x2="129.757" y2="0" gradientUnits="userSpaceOnUse">
<stop stop-color="#6633D1" stop-opacity="0.22"/>
<stop offset="1" stop-color="#0B98FF"/>
</linearGradient>
</defs>
</svg>
